<svg width="64" height="64" viewBox="0 0 64 64" fill="none" xmlns="http://www.w3.org/2000/svg">
<g clip-path="url(#clip0_7_8642)">
<path d="M17.4166 22.6004H1.58365C0.709356 22.6004 0.00012207 23.5185 0.00012207 24.6506V63.6004H19.0001V24.6506C19.0001 23.5187 18.291 22.6004 17.4166 22.6004Z" fill="white"/>
<path d="M34.1312 16.6075L15.2744 4.80741C15.0348 4.65779 14.7687 4.58723 14.5012 4.60243C14.2337 4.61762 13.9737 4.71807 13.7459 4.89424C13.5181 5.07041 13.3301 5.31648 13.1995 5.6091C13.069 5.90173 13.0004 6.23123 13.0001 6.56636V20.3332H17.7143C20.3183 20.3332 22.4285 22.9749 22.4285 26.2332V63.6004H35.0001V18.3663C35.0001 17.6216 34.6635 16.9403 34.1312 16.6075Z" fill="white"/>
<path d="M54.0001 17.0001V2.56938C54.0001 2.04742 53.8359 1.54632 53.5424 1.17718C53.3973 0.994233 53.2251 0.849121 53.0355 0.75015C52.8459 0.651179 52.6427 0.600292 52.4374 0.600403H30.5628C30.3576 0.600306 30.1543 0.651169 29.9647 0.750085C29.7751 0.849001 29.6028 0.994032 29.4576 1.17689C29.3125 1.35974 29.1974 1.57684 29.1189 1.81577C29.0404 2.0547 29 2.31079 29.0001 2.56938V8.76259L35.7842 13.0357C36.5648 13.5233 37.2213 14.2767 37.6793 15.2105C38.1372 16.1444 38.3783 17.2213 38.375 18.319V63.6004H44.6252V22.9063C44.6281 19.6453 46.7246 17.0038 49.3127 17.0001H54.0001Z" fill="white"/>
<path d="M62.3999 20.6004H49.6003C48.7168 20.6004 48.0001 21.4757 48.0001 22.5552V63.6004H64.0001V22.5552C64.0001 21.4759 63.2836 20.6004 62.3999 20.6004Z" fill="white"/>
</g>
<defs>
<clipPath id="clip0_7_8642">
<rect width="64" height="64" fill="white"/>
</clipPath>
</defs>
</svg>
