<svg width="64" height="64" viewBox="0 0 64 64" fill="none" xmlns="http://www.w3.org/2000/svg">
<g clip-path="url(#clip0_7_8624)">
<path d="M62.3998 16.0005H54.4V2.00036C54.4 1.47011 54.2319 0.961052 53.9313 0.586055C53.7828 0.400204 53.6064 0.252788 53.4122 0.152246C53.2181 0.0517042 53.01 9.93292e-06 52.7998 0.000122253H30.4001C30.1899 2.36965e-05 29.9818 0.051694 29.7876 0.15218C29.5935 0.252667 29.417 0.399999 29.2684 0.585758C29.1198 0.771516 29.0019 0.992059 28.9216 1.23478C28.8412 1.47751 28.7998 1.73765 28.7999 2.00036V8.76418L15.1155 0.211808C14.8715 0.0596609 14.6005 -0.0120908 14.3281 0.00335398C14.0558 0.0187988 13.7911 0.120928 13.5592 0.300062C13.3272 0.479196 13.1358 0.7294 13.0029 1.02696C12.87 1.32451 12.8 1.65957 12.7998 2.00036V16.0003H1.6002C1.39005 16.0001 1.18193 16.0517 0.987744 16.1521C0.793558 16.2525 0.617111 16.3998 0.468494 16.5855C0.319876 16.7712 0.202004 16.9918 0.121616 17.2345C0.0412278 17.4772 -9.84512e-05 17.7373 1.76118e-07 18V61.9999C1.76118e-07 63.1043 0.716548 64.0001 1.6002 64.0001C2.48384 64.0001 3.19979 63.1044 3.19979 61.9999V20.0002H19.1999V61.9999C19.1999 63.1043 19.9165 64.0001 20.8001 64.0001C21.6838 64.0001 22.3997 63.1044 22.3997 61.9999V18C22.4003 17.4697 22.2316 16.9607 21.9316 16.5857C21.6316 16.2107 21.2243 15.9997 20.8001 16.0005H16.0001V5.23696L31.9997 15.2366V61.9999C31.9997 63.1043 32.7162 64.0001 33.5999 64.0001C34.4835 64.0001 35.2001 63.1044 35.2001 61.9999V14.0003C35.2001 13.2428 34.8573 12.5501 34.3154 12.211L31.9997 10.7644V4.00059H51.1996V16.0005H46.3997C46.1895 16.0002 45.9814 16.0518 45.7873 16.1522C45.5931 16.2526 45.4167 16.3999 45.2682 16.5857C44.9682 16.9607 44.7995 17.4697 44.8001 18V61.9999C44.8001 63.1043 45.516 64.0001 46.3997 64.0001C47.2833 64.0001 47.9998 63.1044 47.9998 61.9999V20.0002H60.7996V61.9999C60.7996 63.1043 61.5162 64.0001 62.3998 64.0001C63.2835 64.0001 64 63.1044 64 61.9999V18C64 17.4697 63.8319 16.9607 63.5312 16.5857C63.2313 16.2107 62.824 15.9997 62.3998 16.0005Z" fill="white"/>
</g>
<defs>
<clipPath id="clip0_7_8624">
<rect width="64" height="64" fill="white"/>
</clipPath>
</defs>
</svg>
