<svg width="65" height="64" viewBox="0 0 65 64" fill="none" xmlns="http://www.w3.org/2000/svg">
<g clip-path="url(#clip0_2100_156)">
<path d="M14.9847 18.2021C17.5129 15.6751 21.6101 15.6738 24.1381 18.2002L31.3685 25.4258L41.2054 18.7012C43.985 16.8012 47.7228 17.1489 50.1039 19.5283L58.5287 27.9482C64.553 33.9692 64.893 43.6248 59.307 50.0566L56.5121 53.2754C52.2576 58.174 45.4934 60.067 39.3148 58.0889L35.0892 56.7363V56.7354L24.2045 53.332C21.6893 52.5454 19.8372 50.4156 19.3959 47.832L19.3568 47.5801L19.1107 45.7422L19.0892 45.5479C18.9316 43.6085 20.3124 41.8728 22.2377 41.5898L22.431 41.5674L27.722 41.0674L14.8187 27.1875C12.5212 24.7159 12.5181 20.9123 14.7601 18.4375L14.9847 18.2021ZM21.3099 21.0293C20.3439 20.0641 18.7779 20.0647 17.8119 21.0303L17.6459 21.2129C16.8703 22.1587 16.8988 23.5498 17.7484 24.4639L32.0326 39.8301L32.183 40.0039C33.6545 41.835 32.5162 44.6337 30.1166 44.8604L23.1166 45.5195L23.3217 47.0498L23.3588 47.2637C23.5793 48.3227 24.3566 49.1874 25.3998 49.5137L36.2972 52.9229L36.3099 52.9268L40.5355 54.2793C45.1906 55.7696 50.2862 54.3431 53.4916 50.6523L56.2865 47.4336C60.495 42.5877 60.2395 35.3126 55.7006 30.7764L47.2758 22.3574C46.2553 21.3378 44.6535 21.1887 43.4623 22.0029L32.2552 29.6641L32.1039 29.7578C31.3298 30.1917 30.3511 30.0648 29.7133 29.4277L21.3099 21.0293ZM18.2025 5.1377C23.1044 5.13779 27.508 7.27879 30.5248 10.6699L30.8129 11.002L30.9369 11.165C31.5085 12.0021 31.3642 13.1529 30.5726 13.8203C29.781 14.4877 28.6223 14.4354 27.8939 13.7305L27.7543 13.5801L27.5365 13.3281C25.2472 10.7545 21.9147 9.13779 18.2025 9.1377C11.3066 9.1377 5.71815 14.7243 5.71814 21.6133C5.71814 25.8259 7.80587 29.5527 11.0131 31.8145L11.3275 32.0283L11.4926 32.1504C12.2771 32.7918 12.4645 33.936 11.8939 34.7998C11.323 35.6639 10.1962 35.9405 9.29822 35.4697L9.12244 35.3662L8.70935 35.084C4.48438 32.1047 1.71814 27.1825 1.71814 21.6133C1.71815 12.513 9.09971 5.1377 18.2025 5.1377Z" fill="white"/>
</g>
<defs>
<clipPath id="clip0_2100_156">
<rect width="64" height="64" fill="white" transform="translate(0.5)"/>
</clipPath>
</defs>
</svg>
