<svg width="64" height="64" viewBox="0 0 64 64" fill="none" xmlns="http://www.w3.org/2000/svg">
<g clip-path="url(#clip0_7_8633)">
<path d="M62.3999 27.8369C62.3979 27.8355 62.3964 27.8335 62.3949 27.832L36.288 1.72625C35.1752 0.61275 33.6957 0 32.122 0C30.5483 0 29.0688 0.61275 27.9555 1.72613L1.86216 27.8188C1.85341 27.8275 1.84416 27.8368 1.83591 27.8456C-0.449336 30.1439 -0.445336 33.8729 1.84716 36.1654C2.89441 37.2132 4.27716 37.8198 5.75629 37.8836C5.81679 37.8895 5.87741 37.8924 5.93841 37.8924H6.97842V57.1044C6.97842 60.9066 10.0722 63.9999 13.8744 63.9999H24.0883C25.1239 63.9999 25.9633 63.16 25.9633 62.1249V47.0625C25.9633 45.3276 27.3749 43.9165 29.1098 43.9165H35.1342C36.8692 43.9165 38.2802 45.3278 38.2802 47.0625V62.125C38.2802 63.1601 39.1195 64 40.1552 64H50.369C54.1718 64 57.265 60.9067 57.265 57.1045V37.8925H58.2299C59.8032 37.8925 61.2827 37.2796 62.3964 36.1659C64.6914 33.87 64.6924 30.1343 62.3999 27.8369ZM59.7445 33.5146C59.5461 33.7142 59.3101 33.8725 59.0501 33.9803C58.7901 34.0881 58.5114 34.1433 58.2299 34.1426H55.3899C54.3543 34.1426 53.5149 34.9819 53.5149 36.0176V57.1045C53.5149 58.8389 52.1038 60.25 50.3689 60.25H42.0302V47.0625C42.0302 43.2603 38.9368 40.1665 35.134 40.1665H29.1099C25.3072 40.1665 22.2134 43.2603 22.2134 47.0625V60.25H13.8747C12.1402 60.25 10.7285 58.8387 10.7285 57.1045V36.0175C10.7285 34.9818 9.88917 34.1425 8.85354 34.1425H6.06241C6.03316 34.1404 6.00386 34.1391 5.97454 34.1385C5.41592 34.1287 4.89204 33.9071 4.49954 33.514C3.66454 32.679 3.66454 31.3203 4.49954 30.4848L4.50041 30.4837L4.50191 30.4823L30.6078 4.3775C30.8061 4.17788 31.0421 4.01962 31.302 3.9119C31.5619 3.80418 31.8407 3.74915 32.122 3.75C32.6938 3.75 33.2314 3.97263 33.6362 4.3775L59.7362 30.477L59.7484 30.4888C60.579 31.3253 60.5775 32.6813 59.7445 33.5146Z" fill="white"/>
<path d="M59.7445 33.5146C59.5461 33.7142 59.3101 33.8725 59.0501 33.9803C58.7901 34.0881 58.5114 34.1433 58.2299 34.1426H55.3899C54.3543 34.1426 53.5149 34.9819 53.5149 36.0176V57.1045C53.5149 58.8389 52.1038 60.25 50.3689 60.25H42.0302V47.0625C42.0302 43.2603 38.9368 40.1665 35.134 40.1665H29.1099C25.3072 40.1665 22.2134 43.2603 22.2134 47.0625V60.25H13.8747C12.1402 60.25 10.7285 58.8387 10.7285 57.1045V36.0175C10.7285 34.9818 9.88917 34.1425 8.85354 34.1425H6.06241C6.03316 34.1404 6.00386 34.1391 5.97454 34.1385C5.41592 34.1287 4.89204 33.9071 4.49954 33.514C3.66454 32.679 3.66454 31.3203 4.49954 30.4848L4.50041 30.4837L4.50191 30.4823L30.6078 4.3775C30.8061 4.17788 31.0421 4.01962 31.302 3.9119C31.5619 3.80418 31.8407 3.74915 32.122 3.75C32.6938 3.75 33.2314 3.97263 33.6362 4.3775L59.7362 30.477L59.7484 30.4888C60.579 31.3253 60.5775 32.6813 59.7445 33.5146Z" fill="white"/>
</g>
<defs>
<clipPath id="clip0_7_8633">
<rect width="64" height="64" fill="white"/>
</clipPath>
</defs>
</svg>
