<svg width="64" height="64" viewBox="0 0 64 64" fill="none" xmlns="http://www.w3.org/2000/svg">
<g clip-path="url(#clip0_2067_80)">
<path d="M62.4 27.8369C62.398 27.8355 62.3965 27.8335 62.395 27.832L36.2882 1.72625C35.1753 0.61275 33.6958 0 32.1222 0C30.5484 0 29.0689 0.61275 27.9557 1.72613L1.86229 27.8188C1.85354 27.8275 1.84429 27.8368 1.83604 27.8456C-0.449214 30.1439 -0.445214 33.8729 1.84729 36.1654C2.89454 37.2132 4.27729 37.8198 5.75641 37.8836C5.81691 37.8895 5.87754 37.8924 5.93854 37.8924H6.97854V57.1044C6.97854 60.9066 10.0723 63.9999 13.8745 63.9999H24.0884C25.124 63.9999 25.9634 63.16 25.9634 62.1249V47.0625C25.9634 45.3276 27.375 43.9165 29.1099 43.9165H35.1343C36.8693 43.9165 38.2803 45.3278 38.2803 47.0625V62.125C38.2803 63.1601 39.1197 64 40.1553 64H50.3692C54.1719 64 57.2652 60.9067 57.2652 57.1045V37.8925H58.23C59.8033 37.8925 61.2828 37.2796 62.3965 36.1659C64.6915 33.87 64.6924 30.1341 62.3999 27.8368L62.4 27.8369ZM59.7447 33.5146C59.5462 33.7142 59.3102 33.8725 59.0502 33.9803C58.7903 34.0881 58.5115 34.1433 58.23 34.1426H55.39C54.3544 34.1426 53.515 34.9819 53.515 36.0176V57.1045C53.515 58.8389 52.1039 60.25 50.369 60.25H42.0303V47.0625C42.0303 43.2603 38.9369 40.1665 35.1342 40.1665H29.11C25.3073 40.1665 22.2135 43.2603 22.2135 47.0625V60.25H13.8748C12.1403 60.25 10.7287 58.8387 10.7287 57.1045V36.0175C10.7287 34.9818 9.88929 34.1425 8.85366 34.1425H6.06254C6.03328 34.1404 6.00398 34.1391 5.97466 34.1385C5.41604 34.1287 4.89216 33.9071 4.49966 33.514C3.66466 32.679 3.66466 31.3203 4.49966 30.4848C4.50004 30.4848 4.50004 30.4842 4.50054 30.4837L4.50204 30.4823L30.6079 4.3775C30.8062 4.17788 31.0422 4.01962 31.3021 3.9119C31.562 3.80418 31.8408 3.74915 32.1222 3.75C32.6939 3.75 33.2315 3.97263 33.6363 4.3775L59.7363 30.477L59.7485 30.4888C60.5792 31.3253 60.5777 32.6813 59.7447 33.5146Z" fill="#EE8545"/>
</g>
<defs>
<clipPath id="clip0_2067_80">
<rect width="64" height="64" fill="white"/>
</clipPath>
</defs>
</svg>
