<svg width="64" height="64" viewBox="0 0 64 64" fill="none" xmlns="http://www.w3.org/2000/svg">
<g clip-path="url(#clip0_7_8625)">
<path d="M63.3933 60.5181L46.8696 44.2584C51.1966 39.5572 53.8553 33.3398 53.8553 26.4982C53.8532 11.8627 41.7984 0 26.9269 0C12.0554 0 0.000610352 11.8627 0.000610352 26.4982C0.000610352 41.1337 12.0554 52.9964 26.9269 52.9964C33.3524 52.9964 39.2458 50.7739 43.8749 47.079L60.4628 63.4028C61.271 64.199 62.5832 64.199 63.3915 63.4028C63.5837 63.215 63.7365 62.9908 63.8409 62.7432C63.9453 62.4955 63.9991 62.2296 63.9993 61.9608C63.9995 61.6921 63.946 61.4261 63.8419 61.1783C63.7379 60.9306 63.5854 60.7061 63.3933 60.5181ZM26.9269 48.9195C14.344 48.9195 4.1436 38.8811 4.1436 26.4982C4.1436 14.1152 14.344 4.0769 26.9269 4.0769C39.5099 4.0769 49.7102 14.1152 49.7102 26.4982C49.7102 38.8811 39.5099 48.9195 26.9269 48.9195Z" fill="white"/>
</g>
<defs>
<clipPath id="clip0_7_8625">
<rect width="64" height="64" fill="white"/>
</clipPath>
</defs>
</svg>
