<svg width="3131" height="1783" viewBox="0 0 3131 1783" fill="black" xmlns="http://www.w3.org/2000/svg">
<path d="M113.646 1283.26L68.0575 1276.28L67.5923 1290.83C67.5923 1290.83 44.4489 1290.13 37.7037 1294.2C31.0747 1298.27 23.1664 1298.51 15.4907 1291.76C7.81505 1285.12 -2.88437 1295.36 0.720866 1310.84C4.32611 1326.32 19.096 1352.85 24.3294 1365.53C29.5628 1378.21 17.7004 1382.29 27.0042 1399.39C36.3081 1416.61 44.6815 1419.87 50.3801 1428.95C56.0788 1438.03 71.6627 1466.88 78.5243 1473.17C85.5022 1479.34 88.2933 1473.63 92.3638 1485.62C96.4342 1497.6 106.901 1530.3 110.274 1533.1C113.646 1536 106.901 1529.26 127.253 1543.34C147.489 1557.42 151.559 1561.72 151.792 1568.7C152.025 1575.68 148.419 1587.55 148.419 1587.55C148.419 1587.55 157.956 1605.71 163.887 1620.72C169.818 1635.73 167.492 1640.5 174.587 1652.25C181.681 1664 189.356 1660.86 198.428 1659.23C207.499 1657.6 216.803 1662.14 216.803 1662.14L231.107 1649.92C231.107 1649.92 230.41 1622 227.735 1614.08C225.06 1606.17 224.827 1595 229.595 1580.92C234.364 1566.84 242.272 1557.76 243.202 1547.06C244.133 1536.35 238.202 1531.12 236.224 1525.3C234.247 1519.48 243.9 1510.99 262.973 1508.78C282.046 1506.56 273.44 1495.16 283.79 1494.7C294.025 1494.23 306.236 1505.87 315.075 1508.31C323.913 1510.75 344.149 1509.47 347.289 1507.84C350.429 1506.22 343.219 1499 344.382 1488.53C345.545 1478.06 358.221 1484.46 358.221 1484.46C358.221 1484.46 357.523 1459.44 357.523 1449.31C357.523 1439.19 353.22 1426.39 347.987 1420.69C342.754 1414.99 330.077 1411.38 330.077 1411.38C330.077 1411.38 344.382 1405.44 342.288 1398.93C340.195 1392.41 336.125 1385.55 333.682 1381.94C331.24 1378.33 328.216 1374.26 328.216 1374.26C328.216 1374.26 351.36 1371.35 355.895 1369.72C360.431 1368.09 366.129 1358.55 373.573 1351.1C381.016 1343.65 392.413 1335.39 396.251 1333.88C400.088 1332.48 401.717 1336.56 401.717 1336.56C401.717 1336.56 401.717 1356.34 410.555 1360.41C419.394 1364.48 425.558 1364.48 425.558 1364.48C425.558 1364.48 431.954 1346.8 440.56 1344.93C449.166 1343.07 457.54 1346.33 467.774 1343.31C478.008 1340.16 483.009 1332.6 485.451 1335.86C487.894 1339.12 491.382 1344.93 495.685 1343.54C499.989 1342.14 509.292 1328.53 517.666 1337.14C526.039 1345.75 523.364 1357.39 523.364 1357.39C523.364 1357.39 550.113 1362.39 556.044 1366.69C561.975 1371 568.023 1379.15 571.047 1385.08C574.187 1391.01 571.512 1404.4 576.047 1410.91C580.583 1417.31 583.025 1426.39 581.048 1432.21C579.188 1437.91 578.373 1438.61 578.373 1438.61C578.373 1438.61 597.446 1423.13 597.911 1422.08C598.377 1421.15 598.609 1435.23 604.075 1440.47C609.541 1445.71 616.519 1455.95 625.358 1452.22C634.197 1448.38 641.058 1443.61 647.338 1449.31C653.618 1455.02 663.853 1462.7 663.853 1462.7C663.853 1462.7 672.226 1454.32 680.599 1461.53C688.973 1468.75 688.74 1475.84 691.299 1483.52C693.974 1491.2 695.835 1500.51 704.906 1502.14C713.977 1503.77 727.119 1496.21 727.119 1496.21C727.119 1496.21 732.352 1511.92 740.26 1514.13C748.169 1516.34 756.193 1513.66 767.009 1510.52C777.708 1507.38 781.314 1508.66 781.314 1508.66C781.314 1508.66 762.008 1489.81 758.17 1484.8C754.332 1479.8 747.471 1468.28 747.703 1464.56C747.936 1460.83 758.17 1458.62 758.17 1458.62C758.17 1458.62 774.452 1467.23 780.616 1453.85C786.78 1440.47 788.059 1437.56 788.059 1437.56C788.059 1437.56 803.061 1443.03 809.109 1442.1C815.156 1441.17 818.18 1436.16 818.18 1436.16C818.18 1436.16 803.178 1424.76 802.48 1417.78C801.782 1410.8 801.317 1406.03 804.108 1399.16C807.015 1392.18 806.201 1383.92 806.201 1383.92C806.201 1383.92 828.182 1392.29 838.183 1397.53C848.185 1402.77 857.489 1404.51 866.327 1403.7C875.166 1402.88 896.681 1406.61 901.45 1410.33C906.218 1414.17 907.381 1414.64 907.381 1414.64C907.381 1414.64 919.825 1406.72 929.594 1408.7C939.363 1410.56 940.758 1413.47 947.271 1414.17C953.667 1414.87 959.25 1410.8 965.181 1412.31C971.112 1413.71 975.648 1422.78 982.16 1419.99C988.557 1417.08 1010.07 1414.75 1017.28 1418.59C1024.49 1422.43 1045.19 1431.98 1047.87 1433.37C1050.54 1434.77 1058.57 1440 1061.01 1448.15C1063.45 1456.3 1061.94 1474.91 1061.94 1477.24C1061.94 1479.57 1070.08 1476.78 1078.92 1476.31C1087.76 1475.84 1091.83 1480.85 1091.83 1485.39C1091.83 1489.92 1088.46 1501.1 1088.46 1501.1L1119.97 1498.42C1119.97 1498.42 1108.81 1517.97 1107.76 1519.71C1106.83 1521.34 1102.99 1531.7 1102.99 1531.7C1102.99 1531.7 1150.21 1521.23 1153.35 1519.48C1156.49 1517.85 1177.19 1512.03 1181.73 1511.34C1186.26 1510.64 1205.34 1507.73 1206.27 1508.66C1207.2 1509.59 1201.5 1519.6 1200.8 1521.58C1200.1 1523.44 1183.59 1527.28 1186.96 1533.56C1190.33 1539.73 1195.33 1544.5 1206.03 1550.32C1216.73 1556.02 1221.73 1563.93 1227.55 1580.69C1233.25 1597.44 1232.55 1600.24 1243.25 1623.39C1253.95 1646.55 1258.95 1650.62 1263.49 1664.24C1268.02 1677.85 1271.39 1685.3 1276.39 1682.39C1281.4 1679.48 1295.47 1661.91 1300.47 1667.84C1305.47 1673.78 1311.63 1691.47 1315.47 1694.38C1319.31 1697.28 1334.78 1693.21 1341.06 1691.93C1347.22 1690.77 1351.29 1688.56 1361.29 1695.07C1371.29 1701.47 1373.27 1708.46 1384.2 1719.86C1395.13 1731.38 1403.97 1732.78 1410.02 1745.46C1416.07 1758.14 1431.77 1766.52 1439.1 1765.71C1446.54 1765.01 1455.61 1756.63 1455.61 1756.63C1455.61 1756.63 1460.38 1775.71 1469.45 1780.72C1478.52 1785.72 1501.9 1781.65 1513.41 1776.65C1524.81 1771.64 1532.95 1774.2 1540.39 1765.71C1547.83 1757.1 1553.53 1748.25 1559 1747.09C1564.46 1745.93 1600.28 1737.78 1607.26 1732.78C1614.24 1727.77 1614.47 1720.56 1620.87 1722.77C1627.27 1724.86 1636.8 1732.78 1640.64 1732.78C1644.48 1732.78 1660.88 1727.77 1660.88 1727.77C1660.88 1727.77 1674.25 1738.24 1685.18 1745.69C1696.11 1753.14 1699.95 1753.84 1709.49 1753.84C1719.03 1753.84 1723.79 1754.54 1726.93 1758.14C1730.07 1761.75 1746.7 1764.31 1759.61 1762.68C1772.52 1761.05 1786.83 1747.44 1787.76 1745.23C1788.69 1743.02 1790.9 1736.15 1785.9 1722.77C1780.9 1709.39 1773.69 1703.45 1775.43 1695.31C1777.06 1687.16 1782.87 1675.52 1784.5 1667.84C1786.13 1660.16 1787.87 1658.3 1787.87 1658.3C1787.87 1658.3 1813.69 1672.15 1824.86 1675.29C1836.02 1678.43 1847.77 1670.75 1857.3 1673.2C1866.84 1675.64 1877.31 1680.64 1880.21 1685.42C1883.12 1690.19 1896.73 1712.18 1902.66 1714.51C1908.59 1716.95 1943.02 1725.45 1956.16 1717.65C1969.3 1709.74 1966.39 1707.18 1981.51 1707.18C1996.63 1707.18 2017.33 1711.95 2022.1 1713.11C2026.87 1714.27 2045.24 1713.81 2050.71 1712.64C2056.17 1711.48 2065.24 1721.72 2072.45 1729.4C2079.67 1737.08 2084.67 1734.64 2093.27 1734.64C2101.88 1734.64 2120.25 1727.19 2129.56 1729.63C2138.86 1732.08 2157.93 1730.8 2166.07 1721.95C2174.22 1713.11 2181.31 1709.27 2183.29 1708.8C2185.15 1708.34 2205.97 1703.57 2210.04 1695.42C2214.11 1687.28 2214.11 1677.27 2218.87 1670.87C2223.64 1664.47 2242.02 1655.86 2250.16 1658.88C2258.3 1662.03 2263.3 1665.28 2277.14 1659.35C2290.98 1653.42 2297.38 1650.97 2311.21 1653.42C2325.05 1655.86 2342.96 1648.41 2348.66 1640.5C2354.36 1632.59 2358.43 1623.98 2358.43 1623.98C2358.43 1623.98 2373.2 1619.9 2371.11 1611.29C2369.02 1602.68 2362.73 1600.12 2358.66 1593.14C2354.59 1586.16 2353.2 1580.69 2353.2 1580.69C2353.2 1580.69 2360.41 1562.77 2361.34 1549.85C2362.27 1536.94 2359.71 1522.16 2358.2 1517.62C2356.8 1513.08 2332.61 1502.14 2330.29 1502.14C2327.96 1502.14 2336.45 1469.91 2351.34 1464.91C2366.11 1459.9 2365.41 1455.83 2373.55 1449.2C2381.69 1442.56 2386.69 1436.05 2404.6 1436.51C2422.51 1436.98 2427.05 1434.88 2440.42 1434.65C2453.8 1434.42 2461.47 1432.56 2479.27 1442.1C2497.18 1451.64 2507.88 1469.79 2524.85 1484.11C2541.83 1498.42 2540.32 1490.04 2553.46 1507.03C2566.61 1524.02 2575.21 1531.35 2584.98 1531.82C2594.75 1532.28 2599.05 1524.6 2602.43 1524.37C2605.8 1524.14 2620.57 1532.98 2632.78 1531.82C2644.99 1530.65 2650.22 1525.65 2663.37 1526.81C2676.51 1527.98 2681.28 1530.65 2685.58 1539.96C2689.88 1549.27 2699.42 1561.72 2706.4 1561.72C2713.37 1561.72 2721.86 1553.58 2728.61 1551.02C2735.24 1548.34 2745.59 1550.55 2750.36 1547.18C2755.12 1543.8 2754.89 1526.35 2753.5 1523.79C2752.1 1521.23 2762.57 1502.26 2768.73 1496.09C2774.9 1489.92 2788.27 1485.15 2794.08 1487.48C2799.9 1489.81 2811.99 1501.33 2809.55 1510.87C2807.11 1520.41 2804.78 1528.79 2809.09 1534.03C2813.39 1539.26 2828.39 1566.96 2831.3 1582.55C2834.21 1598.03 2836.53 1608.38 2840.37 1614.32C2844.21 1620.25 2839.44 1638.4 2833.16 1639.34C2827 1640.27 2816.88 1634.56 2809.78 1645.97C2802.69 1657.37 2791.64 1673.2 2793.5 1676.57C2795.36 1679.95 2809.2 1690.65 2821.41 1703.8C2833.63 1716.95 2840.72 1733.12 2836.18 1745.11C2831.65 1757.1 2822.81 1758.49 2831.18 1768.73C2839.56 1778.97 2847.47 1772.81 2847.47 1772.81C2847.47 1772.81 2848.63 1750.81 2852.23 1741.5C2855.84 1732.19 2856.54 1716.72 2856.54 1716.72C2856.54 1716.72 2864.21 1725.33 2866.31 1724.63C2868.4 1723.93 2869.91 1710.78 2869.91 1710.78C2869.91 1710.78 2876.31 1726.03 2880.38 1726.03C2884.45 1726.03 2908.75 1722.19 2915.27 1706.94C2921.66 1691.7 2923.41 1686.46 2923.41 1673.55C2923.41 1660.63 2931.78 1640.85 2929.57 1621.07C2927.36 1601.28 2922.36 1601.75 2925.27 1587.67C2928.18 1573.59 2938.64 1551.83 2932.94 1530.07C2927.25 1508.31 2920.04 1485.62 2917.24 1466.07C2914.34 1446.52 2910.03 1443.84 2910.27 1430C2910.5 1416.15 2905.03 1382.52 2900.03 1375.07C2895.03 1367.63 2891.66 1363.67 2889.1 1359.6C2886.43 1355.52 2875.73 1333.3 2867.12 1319.68C2858.51 1306.07 2857.58 1306.53 2849.91 1296.76C2842.23 1286.99 2834.21 1279.31 2833.63 1270C2833.16 1260.69 2822.93 1233.46 2818.86 1230.08C2814.79 1226.71 2809.55 1226.94 2805.71 1225.31C2801.88 1223.68 2783.97 1208.56 2783.97 1208.56L2788.73 1194.71C2788.73 1194.71 2779.9 1194.01 2768.73 1194.71C2757.57 1195.41 2759.89 1195.64 2750.59 1191.8C2741.29 1187.96 2727.68 1185.17 2718.14 1189.71C2708.61 1194.24 2703.37 1199.25 2705.23 1203.09C2707.09 1206.93 2712.68 1215.54 2715.47 1222.17C2718.37 1228.8 2710.23 1239.86 2706.16 1244.16C2702.09 1248.47 2693.95 1251.61 2693.95 1251.61L2678.72 1227.76C2678.72 1227.76 2682.32 1236.13 2679.18 1246.37C2676.04 1256.61 2671.51 1257.78 2671.51 1257.78C2671.51 1257.78 2655.57 1232.99 2652.9 1228.69C2650.22 1224.38 2629.06 1233.46 2619.52 1234.85C2609.98 1236.25 2608.82 1227.87 2611.85 1213.33C2614.99 1198.78 2618.47 1168.88 2619.06 1159.1C2619.52 1149.33 2618.59 1143.63 2614.52 1135.48C2610.45 1127.33 2614.05 1116.63 2614.29 1109.41C2614.52 1102.2 2619.06 1075.32 2619.99 1066.48C2620.92 1057.63 2623.13 1052.16 2618.36 1045.65C2613.59 1039.25 2609.52 1027.73 2614.99 1020.28C2620.45 1012.83 2622.2 1008.29 2622.2 1008.29C2622.2 1008.29 2614.99 1000.85 2614.06 991.77C2613.12 982.694 2610.22 964.541 2624.29 951.857C2638.36 939.174 2649.06 929.166 2664.18 925.094C2679.18 921.021 2681.16 915.785 2681.16 915.785L2675.93 904.846C2675.93 904.846 2692.91 900.773 2695.46 896.003C2698.02 891.232 2701.86 878.315 2701.86 878.315C2701.86 878.315 2711.86 878.781 2715 878.083C2718.14 877.384 2713.37 869.006 2710 861.792C2706.63 854.577 2709.3 846.548 2719.3 841.312C2729.31 836.075 2745.59 823.857 2750.12 822.693C2754.66 821.53 2759.66 820.831 2759.66 820.831C2759.66 820.831 2746.29 838.286 2751.75 843.057C2757.22 847.828 2768.73 843.755 2769.43 843.755C2770.13 843.755 2777.1 820.831 2778.04 811.29C2778.97 801.748 2775.36 794.068 2775.36 794.068C2775.36 794.068 2787.57 795.464 2792.81 785.922C2798.04 776.38 2801.88 765.675 2801.88 765.675L2797.11 762.3C2797.11 762.3 2783.73 784.293 2775.13 773.006C2766.52 761.835 2759.66 743.449 2756.29 726.46C2752.92 709.471 2743.61 690.62 2740.59 677.471C2737.45 664.322 2737.21 653.384 2739.42 647.915C2741.52 642.445 2747.1 623.129 2747.1 623.129C2747.1 623.129 2752.33 629.064 2758.03 624.525C2763.73 619.987 2768.5 606.838 2768.5 606.838C2768.5 606.838 2778.5 623.827 2785.01 630.925C2791.41 638.14 2795.01 627.784 2795.01 627.784C2795.01 627.784 2800.71 634.184 2804.32 634.998C2807.92 635.696 2812.69 642.678 2807.92 621.384C2803.16 600.089 2795.71 590.78 2797.22 581.238C2798.62 571.696 2802.46 564.482 2802.46 564.482C2802.46 564.482 2795.83 559.245 2783.85 552.263C2771.87 545.282 2766.17 533.412 2767.1 525.732C2768.03 518.052 2773.73 515.26 2780.71 510.721C2787.69 506.183 2791.87 505.02 2791.87 505.02C2791.87 505.02 2778.97 522.242 2786.64 529.805C2794.32 537.485 2797.11 544.583 2816.76 555.405C2836.3 566.111 2838.28 563.783 2836.53 588.802C2834.91 613.82 2832.23 613.122 2838.39 623.478C2844.56 633.718 2845.84 634.649 2857.47 665.02C2869.21 695.391 2867 690.62 2877.01 709.471C2887.01 728.322 2889.91 731.697 2886.31 750.315C2882.7 768.933 2879.91 778.708 2879.91 778.708C2879.91 778.708 2892.36 780.337 2899.22 797.559C2906.08 814.781 2897.82 808.264 2909.45 824.09C2921.2 839.799 2916.08 843.639 2939.57 863.537C2963.07 883.435 2964.34 880.061 2980.63 886.228C2996.91 892.395 2992.61 884.599 3009.24 898.679C3025.98 912.759 3021.68 919.159 3036.68 921.835C3051.68 924.512 3055.52 930.912 3081.81 941.85C3108.09 952.788 3116.46 954.534 3122.86 958.141C3129.26 961.748 3131 963.377 3131 963.377C3131 963.377 3127.86 939.988 3122.39 923.232C3116.93 906.475 3116.7 903.683 3105.88 891.93C3095.18 880.177 3087.27 877.617 3082.97 868.773C3078.67 859.93 3077.74 844.919 3086.11 842.242C3094.48 839.566 3094.72 835.028 3094.72 835.028C3094.72 835.028 3080.18 826.184 3066.11 815.944C3052.03 805.704 3051.57 803.726 3049.59 790.344C3047.73 776.962 3061.57 768.119 3068.43 766.955C3075.29 765.791 3063.66 754.969 3061.22 752.409C3058.78 749.849 3040.75 753.34 3030.17 743.333C3019.7 733.326 3011.79 724.715 3009.93 718.315C3008.07 711.915 3013.31 697.253 3014.47 696.555C3015.63 695.857 3018.07 692.715 3018.07 692.715C3018.07 692.715 3006.33 684.802 2998.3 684.802C2990.28 684.802 2988.53 687.246 2978.53 680.264C2968.53 673.282 2962.02 660.947 2959.46 657.107C2956.79 653.267 2954.46 650.94 2954.46 650.94C2954.46 650.94 2944.69 671.187 2945.62 675.726C2946.55 680.264 2945.39 682.94 2935.85 676.424C2926.32 670.024 2919.57 663.74 2915.03 657.806C2910.5 651.871 2908.41 639.653 2906.66 636.278C2905.03 632.904 2893.29 618.591 2885.84 608.118C2878.4 597.645 2873.4 594.271 2875.84 584.962C2878.28 575.653 2890.38 567.973 2890.38 567.973C2890.38 567.973 2872.47 535.507 2879.21 533.645C2885.84 531.783 2904.22 547.027 2905.96 548.191C2907.59 549.354 2889.45 526.198 2891.66 513.281C2893.75 500.365 2891.89 494.431 2898.87 483.725C2905.85 473.02 2907.01 466.969 2912.48 465.805C2917.94 464.641 2938.29 466.503 2939.46 466.503C2940.62 466.503 2925.39 451.259 2921.55 441.718C2917.71 432.176 2917.71 432.641 2912.71 418.328C2907.71 404.016 2902.47 396.568 2898.87 390.401C2895.26 384.234 2887.7 360.03 2888.17 347.463C2888.63 334.779 2884.1 321.863 2878.87 312.088C2873.63 302.314 2865.26 286.023 2865.26 286.023C2865.26 286.023 2890.26 268.568 2893.87 260.19C2897.47 251.812 2895.03 249.019 2889.33 243.201C2883.63 237.383 2881.66 234.59 2881.66 234.59C2881.66 234.59 2868.98 234.124 2863.75 235.521C2858.51 236.917 2850.61 242.735 2842.93 242.153C2835.25 241.688 2827.69 236.452 2819.55 237.848C2811.41 239.244 2804.78 245.295 2795.71 249.252C2786.64 253.324 2785.71 254.721 2782.8 258.793L2779.9 262.866L2776.29 249.95C2776.29 249.95 2764.89 248.786 2764.54 247.041C2764.31 245.412 2785.01 238.197 2786.76 237.732C2788.39 237.266 2801.76 230.517 2795.13 214.342C2788.5 198.051 2782.45 200.262 2773.62 191.186C2764.78 182.11 2767.92 180.713 2755.71 178.037C2743.49 175.361 2736.63 169.193 2736.17 162.095C2735.7 154.997 2735.7 153.717 2735.7 153.717C2735.7 153.717 2759.54 154.648 2769.55 152.088C2779.55 149.411 2778.38 140.102 2777.45 135.099C2776.52 130.095 2770.82 121.484 2778.15 118.808C2785.59 116.131 2790.83 120.437 2802.23 119.04C2813.62 117.644 2814.44 114.968 2819.44 106.822C2824.44 98.6767 2822.81 97.0476 2832.58 92.5094C2842.35 87.9712 2838.74 79.1275 2838.74 79.1275L2843.05 70.0511C2843.05 70.0511 2833.51 71.4475 2826.76 65.9784C2820.14 60.5093 2823.86 54.8074 2812.69 52.5965C2801.53 50.502 2788.62 51.4329 2788.62 51.4329L2800.36 29.9055L2788.62 27.4619L2790.25 23.6219L2776.87 0C2776.87 0 2738.03 20.8292 2734.89 25.3673C2731.75 29.9055 2728.26 31.3019 2725.35 43.2874C2722.44 55.2729 2720.35 67.142 2720.35 67.142L2760.94 69.0038C2760.94 69.0038 2746.64 86.6912 2741.17 87.3893C2735.7 88.0875 2728.96 85.993 2721.17 81.2221C2713.26 76.4511 2705.7 74.2402 2705.7 74.2402C2705.7 74.2402 2681.39 85.1784 2666.85 95.0694C2652.32 104.844 2641.04 110.313 2633.48 120.088C2625.8 129.862 2625.1 126.022 2606.96 135.331C2588.82 144.64 2578.35 153.717 2562.3 179.317C2546.37 204.917 2551.37 195.608 2543.23 211.55C2535.09 227.492 2529.62 232.03 2523.46 241.688C2517.3 251.23 2510.78 257.979 2510.78 257.979C2510.78 257.979 2551.84 269.732 2563 276.364C2574.17 282.997 2572.3 290.212 2563.47 293.121C2554.63 296.03 2540.09 295.797 2531.95 297.426C2523.81 299.055 2519.27 291.259 2517.41 284.975C2515.55 278.808 2515.55 277.063 2515.55 277.063L2505.55 287.303C2505.55 287.303 2511.01 294.517 2513.46 308.132C2515.9 321.746 2510.32 333.965 2503.92 341.063C2497.52 348.277 2489.85 348.743 2487.64 357.005C2485.55 365.383 2483.1 366.547 2480.43 377.019C2477.75 387.492 2474.85 396.103 2474.96 395.87C2475.08 395.638 2460.19 403.318 2453.91 407.274C2447.75 411.347 2441.47 405.179 2437.17 401.572C2432.86 397.965 2414.49 384.816 2405.18 387.492C2395.88 390.168 2396.11 387.725 2384.95 399.943C2373.78 412.161 2365.18 419.027 2362.74 428.569C2360.29 438.11 2366.11 439.972 2354.83 451.027C2343.66 461.965 2350.29 462.43 2334.82 460.336C2319.36 458.241 2310.98 462.78 2310.05 469.878C2309.01 476.976 2307.96 477.79 2307.96 477.79C2307.96 477.79 2301.33 469.878 2293.19 471.623C2285.05 473.252 2277.26 472.554 2278.88 468.016C2280.51 463.478 2284.12 458.94 2284.12 458.94C2284.12 458.94 2274.58 450.678 2265.51 456.496C2256.44 462.43 2249 471.041 2247.37 485.82C2245.74 500.598 2249.93 497.107 2246.67 506.067C2243.41 515.027 2243.53 516.307 2243.53 516.307C2243.53 516.307 2238.76 508.627 2238.06 503.623C2237.37 498.62 2233.99 495.245 2227.36 497.223C2220.74 499.085 2214.69 502.692 2214.69 502.692C2214.69 502.692 2222.13 491.289 2224.69 485.703C2227.36 480.234 2225.15 478.721 2225.15 478.721C2225.15 478.721 2197.48 492.103 2191.31 496.874C2185.15 501.645 2187.01 504.554 2172.24 509.791C2157.47 514.911 2155.03 514.096 2155.03 514.096C2155.03 514.096 2165.96 514.096 2168.87 525.267C2171.77 536.438 2164.56 540.278 2163.87 540.976C2163.17 541.674 2161.19 550.751 2161.19 550.751C2161.19 550.751 2172.12 548.307 2173.17 548.307C2174.22 548.307 2193.99 573.093 2195.38 574.605C2196.78 576.002 2173.17 585.776 2173.17 585.776L2185.15 601.485C2185.15 601.485 2160.61 597.878 2153.4 600.555C2146.19 603.231 2140.72 609.398 2140.72 616.845C2140.72 624.293 2139.79 629.064 2139.79 629.064L2099.44 622.082L2117.11 674.096C2117.11 674.096 2100.13 681.311 2088.04 672.933C2075.83 664.555 2071.87 660.831 2063.5 654.315C2055.01 647.798 2046.99 645.471 2046.29 645.238C2045.59 645.005 2050.13 626.155 2050.82 624.758C2051.52 623.362 2049.2 627.435 2039.66 620.685C2030.12 613.936 2027.45 600.671 2020.82 595.667C2014.19 590.664 1996.98 589.267 1996.98 589.267L1988.37 601.951C1988.37 601.951 1977.9 603.813 1970.46 599.274C1963.02 594.736 1953.71 591.594 1953.71 591.594L1960.34 634.998C1960.34 634.998 1959.88 640.467 1949.64 644.773C1939.41 649.078 1936.97 652.22 1929.18 651.987C1921.27 651.755 1916.5 649.893 1906.03 652.22C1895.57 654.547 1890.1 640.7 1889.75 637.675C1889.4 634.649 1889.75 631.042 1889.75 631.042C1889.75 631.042 1860.44 636.744 1846.6 644.889C1832.76 653.035 1829.86 663.275 1832.07 669.675C1832.07 669.675 1820.32 650.824 1820.32 649.893C1820.32 648.962 1818.69 655.129 1813.34 656.875C1808.11 658.504 1800.9 655.013 1794.27 653.733C1787.64 652.569 1774.96 650.824 1774.96 650.824C1774.96 650.824 1782.64 665.136 1785.2 666.766C1787.87 668.395 1783.57 675.609 1781.36 678.984C1779.15 682.358 1772.52 679.682 1763.45 687.362C1754.38 695.042 1751.12 697.486 1746.94 698.3C1742.87 699.115 1734.26 710.984 1734.03 711.915C1733.79 712.846 1729.03 702.14 1734.26 691.667C1739.49 681.195 1741.24 683.987 1750.19 670.14C1759.26 656.293 1760.43 641.282 1765.89 629.529C1771.36 617.776 1778.1 612.075 1786.36 598.693C1794.74 585.311 1792.76 573.674 1787.06 566.227L1793.46 552.613C1793.46 552.613 1781.01 541.209 1775.55 536.089C1770.08 531.085 1762.64 515.26 1749.03 517.936C1735.42 520.612 1712.98 527.478 1712.05 531.783C1711.12 536.089 1711.12 542.256 1711.12 542.256C1711.12 542.256 1703.44 541.092 1700.42 536.787C1697.28 532.482 1700.42 519.798 1691.58 518.169C1682.74 516.54 1667.74 522.242 1665.3 518.867C1662.85 515.492 1675.3 505.951 1677.04 500.016C1678.67 494.081 1679.13 491.638 1679.13 491.638C1679.13 491.638 1671.46 485.005 1662.62 485.703C1653.78 486.401 1643.31 498.387 1635.64 519.798C1627.96 541.325 1640.64 544.118 1636.1 549.936C1631.57 555.754 1623.2 553.311 1616.8 553.776C1610.4 554.242 1624.24 567.158 1624.24 567.158C1624.24 567.158 1594.82 573.558 1589.12 576.467C1583.54 579.376 1583.31 571.347 1583.65 569.485C1584 567.623 1563.65 573.093 1554.35 575.42C1545.04 577.864 1553.65 583.565 1555.51 584.031C1557.37 584.496 1527.13 597.645 1513.29 602.184C1499.45 606.722 1494.69 608.351 1487.71 612.656C1480.73 616.962 1477.24 614.285 1477.71 623.129C1478.17 631.973 1479.1 632.671 1477.01 640.816C1474.92 648.962 1476.08 651.056 1462.47 656.293C1462.47 656.293 1475.61 663.507 1477.94 669.209C1480.27 674.911 1452.12 679.216 1439.79 679.449C1427.35 679.682 1413.04 674.213 1404.44 675.842C1395.83 677.471 1386.53 694.926 1386.53 694.926C1386.53 694.926 1390.83 698.998 1389.2 712.148C1387.58 725.297 1389.9 728.671 1394.67 734.839C1399.44 741.006 1407.81 750.548 1411.42 756.599C1415.02 762.65 1411.42 771.609 1402.11 770.446C1392.81 769.282 1382.81 759.042 1383.74 753.922C1384.67 748.919 1385.6 741.937 1385.6 741.937C1385.6 741.937 1366.53 735.304 1359.32 731.929C1352.1 728.555 1341.41 725.762 1344.08 736.235C1346.75 746.708 1341.99 748.686 1339.78 751.944C1337.68 755.319 1325.47 740.191 1320.7 742.635C1320.7 742.635 1327.1 764.86 1330.24 767.653C1333.38 770.562 1339.08 774.868 1341.41 779.057C1343.73 783.246 1349.31 790.46 1349.31 790.46C1349.31 790.46 1333.03 781.617 1325.94 780.919C1318.73 780.22 1317.56 784.759 1310 774.286C1302.33 763.813 1296.17 756.133 1302.1 747.057C1308.03 737.98 1311.87 735.653 1313.84 723.435C1315.7 711.217 1308.61 704.351 1314.08 695.973C1314.08 695.973 1307.91 702.373 1300 722.737C1292.09 742.984 1283.72 740.424 1274.42 744.962C1265.11 749.5 1265.11 750.199 1265.11 750.199C1265.11 750.199 1273.25 753.806 1275.12 769.282C1276.98 784.759 1276.28 786.271 1276.05 795.813C1275.81 805.355 1272.91 801.981 1267.67 814.199C1262.44 826.417 1260.69 829.21 1259.3 842.126C1257.9 855.042 1258.6 863.421 1268.6 861.21C1278.6 859.115 1286.75 855.275 1291.28 857.37C1295.82 859.464 1303.49 861.908 1312.33 873.893C1321.17 885.879 1327.1 892.512 1323.73 903.45C1320.36 914.388 1308.73 917.53 1311.75 925.443C1314.89 933.355 1325.59 939.988 1328.73 942.897C1331.87 945.806 1317.22 946.737 1311.52 939.523C1305.82 932.308 1301.52 922.999 1302.68 915.435C1303.84 907.755 1310.82 906.592 1306.75 895.654C1302.68 884.715 1303.61 878.897 1296.75 877.733C1289.89 876.57 1271.16 874.592 1267.44 879.828C1263.6 885.064 1261.97 890.068 1264.53 902.519C1267.21 914.97 1266.63 917.53 1259.07 929.748C1251.39 941.966 1251.62 947.901 1239.53 951.974C1227.32 956.046 1221.62 953.836 1213.24 961.05C1204.87 968.265 1205.34 977.574 1200.34 975.828C1195.33 974.199 1193.36 967.683 1179.52 962.446C1165.68 957.21 1155.21 946.97 1153.93 933.821C1153.93 933.821 1167.31 945.225 1189.05 941.734C1210.8 938.126 1211.73 932.192 1217.66 926.025C1223.6 919.857 1221.27 926.025 1229.88 916.017C1238.48 906.01 1242.55 896.003 1247.09 887.857C1251.62 879.712 1243.95 872.148 1240.69 866.795C1237.32 861.559 1233.02 855.042 1241.16 838.17C1249.3 821.181 1252.55 807.333 1255.93 786.62C1259.3 765.791 1257.79 759.391 1255.69 753.457C1253.6 747.522 1248.02 741.006 1257.09 735.537C1266.16 730.068 1271.86 715.522 1273.6 706.213C1275.23 696.904 1277.91 692.831 1273.84 688.293C1269.77 683.755 1255.69 675.609 1248.02 673.049C1240.34 670.373 1229.18 668.977 1229.18 668.977C1229.18 668.977 1217.2 709.588 1202.55 723.202C1187.89 736.817 1180.68 727.857 1177.08 737.864C1173.47 747.871 1175.68 742.169 1174.17 755.086C1172.66 768.002 1166.96 779.755 1165.21 785.922C1163.47 791.973 1153 790.577 1160.91 800.584C1168.82 810.591 1168.47 814.548 1169.52 824.904C1170.56 835.261 1181.38 844.221 1181.38 844.221L1164.17 870.403C1164.17 870.403 1155.91 850.388 1143.81 838.17C1131.6 825.951 1123 809.544 1116.25 800.584C1109.51 791.624 1105.2 784.41 1099.04 778.359C1092.99 772.308 1069.73 749.733 1061.48 753.34C1053.22 756.948 1052.52 771.61 1053.92 775.217C1055.31 778.824 1058.57 785.224 1044.26 791.74C1029.96 798.141 1021.35 803.959 1021.35 803.959C1021.35 803.959 1017.86 796.395 1017.63 792.09C1017.4 787.784 1019.49 788.017 1022.63 782.897C1025.77 777.777 1020.42 772.191 1020.42 772.191C1020.42 772.191 996.232 776.73 993.441 777.777C990.65 778.824 987.278 778.359 982.044 773.122C976.811 767.886 965.413 759.624 954.133 761.951C942.852 764.162 939.014 767.42 935.176 762.999C931.338 758.577 927.384 754.504 927.384 754.504L937.502 732.046C937.502 732.046 930.059 726.577 922.383 731.697C914.591 736.817 914.242 740.657 914.242 740.657C914.242 740.657 895.053 732.977 890.401 732.279C885.749 731.58 864.234 730.184 846.324 730.533C828.414 730.882 823.414 735.537 814.459 739.144C805.504 742.751 797.246 743.799 790.501 734.489C783.756 725.18 775.848 716.22 776.545 707.609C777.243 698.998 777.941 691.086 795.153 696.904C812.365 702.722 815.97 701.558 815.97 701.558C815.97 701.558 825.274 680.031 817.017 667.929C808.76 655.711 790.501 640.351 790.501 640.351C790.501 640.351 789.803 666.882 772.242 682.242C754.681 697.602 765.032 706.562 755.728 717.035C746.424 727.391 719.559 739.26 719.559 739.26C719.559 739.26 727.816 723.551 727.119 718.082C726.421 712.729 712.116 700.162 709.209 700.162C706.301 700.162 676.296 698.766 668.388 700.511C660.48 702.257 646.873 703.42 646.873 703.42C646.873 703.42 639.663 728.904 640.826 735.304C641.872 741.704 625.823 738.562 618.613 725.646C611.402 712.729 604.308 680.147 604.308 678.402C604.308 676.656 603.61 673.049 603.61 673.049C603.61 673.049 584.305 676.307 584.305 692.366C584.305 708.424 593.26 718.897 587.561 725.297C581.862 731.697 574.303 729.602 574.303 729.602L555.346 708.424C555.346 708.424 560.347 696.555 559.301 690.853C558.254 685.151 551.043 677.937 553.253 669.326C555.346 660.715 561.859 653.151 561.859 653.151C561.859 653.151 561.859 638.489 574.419 631.275C586.979 624.06 589.771 624.525 590.12 608.002C590.468 591.478 586.165 572.162 590.468 565.413C594.771 558.663 595.12 552.147 595.12 552.147C595.12 552.147 594.423 556.103 604.075 583.682C613.728 611.26 626.986 634.882 636.29 652.104C645.594 669.326 667.109 680.729 683.158 680.729C699.207 680.729 710.372 677.471 720.025 662.111C729.677 646.751 733.282 638.14 727.235 622.315C721.188 606.605 717.582 600.438 716.884 580.424C716.187 560.409 714.791 546.096 707.93 535.972C701.184 525.965 699.323 518.052 692.578 510.14C685.833 502.227 678.622 500.132 677.576 490.474C676.529 480.816 676.529 474.765 676.529 474.765C676.529 474.765 680.832 473.369 686.531 477.674C692.229 481.98 690.834 469.412 690.834 469.412C690.834 469.412 671.528 464.758 669.667 464.758C667.807 464.758 651.06 449.398 625.939 451.143C600.935 452.889 595.469 465.456 594.423 486.634C593.376 507.812 595.818 504.205 574.768 508.511C553.602 512.816 556.858 505.252 545.81 521.078C534.762 536.787 529.645 565.878 529.645 565.878C529.645 565.878 525.69 556.569 512.083 565.529C498.477 574.489 494.871 573.093 489.173 591.013C483.474 608.933 473.821 618.94 464.518 619.289L455.214 619.638C455.214 619.638 459.168 656.875 451.957 664.438C444.747 672.002 407.183 666.998 391.482 669.093C375.782 671.187 324.844 665.136 323.797 665.486C322.75 665.835 331.705 677.355 334.845 678.751C337.985 680.147 321.936 677.704 331.24 696.671C340.544 715.638 343.102 715.289 339.846 722.155L336.59 728.904C336.59 728.904 311.586 708.075 307.283 703.42C302.98 698.766 295.42 690.504 294.025 693.064C292.629 695.624 281.464 696.671 270.067 699.813C258.67 703.071 249.25 713.777 236.806 722.737C224.246 731.697 222.152 735.304 216.454 736.351L210.755 737.399C210.755 737.399 218.315 743.1 208.662 751.711C199.009 760.322 195.055 758.111 195.055 758.111C195.055 758.111 191.799 767.071 186.1 776.38C180.401 785.69 178.192 794.999 186.798 814.664C195.404 834.33 198.311 828.279 204.01 836.89C209.709 845.501 214.709 854.112 195.753 867.028C176.796 879.944 173.075 883.784 171.446 902.17C169.818 920.555 173.191 948.366 165.05 953.719C156.793 959.072 147.14 950.112 142.139 943.712C137.139 937.312 131.091 939.057 131.091 939.057C131.091 939.057 114.577 961.632 113.181 968.381C111.786 975.13 112.832 977.341 127.137 983.043C141.442 988.745 136.79 994.447 145.745 999.567C154.7 1004.57 155.397 1010.62 152.955 1020.74C150.396 1030.75 138.999 1044.02 135.394 1046.23L131.789 1048.32C131.789 1048.32 146.791 1061.59 146.442 1071.25C146.093 1080.9 134.58 1095.57 134.231 1099.17C133.882 1102.78 146.442 1113.14 155.746 1124.19C165.05 1135.25 171.912 1134.9 171.912 1155.03C171.912 1175.16 170.167 1168.64 183.774 1186.21C197.381 1203.79 206.336 1221.71 206.336 1221.71C206.336 1221.71 190.636 1228.45 182.03 1232.06C173.424 1235.67 170.632 1235.32 170.981 1245.68C171.33 1256.03 157.956 1266.85 155.979 1268.6C154.002 1270.35 152.025 1268.25 140.627 1258.59C129.23 1248.93 120.624 1248.24 108.762 1249.63C96.8994 1251.03 96.5505 1257.2 96.5505 1257.2C96.5505 1257.2 107.948 1264.41 114.46 1271.51C120.857 1278.72 121.089 1284.89 114.228 1282.45L113.646 1283.26Z" fill="black"/>
<path d="M901.566 687.827C899.24 686.082 886.68 671.304 882.26 669.326C877.841 667.347 869.933 670.256 865.746 672.584C861.676 674.911 860.164 687.129 869.351 691.551C878.422 695.973 883.656 694.227 890.169 693.878C896.565 693.529 901.682 687.827 901.682 687.827H901.566Z" fill="black"/>
<path d="M1048.22 711.449C1043.57 717.151 1038.68 719.828 1037.63 721.806C1036.59 723.784 1040.66 731.697 1043.68 736.817C1046.71 742.053 1050.08 748.802 1050.08 748.802C1050.08 748.802 1058.34 746.475 1058.34 743.217C1058.34 739.959 1056.24 732.511 1054.38 726.926C1052.52 721.34 1048.1 711.333 1048.1 711.333L1048.22 711.449Z" fill="black"/>
<path d="M1032.4 620.336C1029.14 629.296 1021.35 630.344 1025.19 648.962C1029.14 667.58 1032.4 680.147 1031.24 685.5C1030.19 690.853 1024.49 692.715 1024.49 692.715C1024.49 692.715 1016.24 685.966 1007.28 679.798C998.326 673.631 986.463 670.838 985.417 662.227C984.37 653.616 995.767 648.264 995.767 648.264C995.767 648.264 993.209 637.907 989.371 631.042C985.417 624.293 979.02 615.333 976.113 614.169C973.205 613.122 969.6 599.74 978.671 596.598C987.743 593.456 990.069 596.598 1003.33 590.547C1016.58 584.496 1012.63 570.533 1012.63 570.533C1012.63 570.533 1019.84 570.882 1024.49 570.183C1029.14 569.485 1028.8 558.314 1028.8 558.314C1028.8 558.314 1033.45 564.016 1046.01 561.223C1058.57 558.314 1063.57 553.311 1063.57 553.311L1050.66 544.002C1050.66 544.002 1084.62 533.994 1093.92 529.34C1103.23 524.685 1108.58 517.122 1107.88 511.769L1107.18 506.416C1107.18 506.416 1132.18 495.361 1141.95 493.151C1151.61 491.056 1153.35 492.103 1164.52 491.405C1175.56 490.707 1186.38 484.656 1186.38 484.656C1186.38 484.656 1193.59 490.707 1206.03 492.918C1218.59 495.012 1227.9 492.22 1242.9 487.914C1257.9 483.609 1265.46 474.649 1272.56 485.005C1279.77 495.361 1268.95 503.274 1263.95 507.231C1258.95 511.187 1249.3 516.54 1242.78 517.238C1236.39 517.936 1206.96 522.94 1189.75 522.94C1172.54 522.94 1152.89 526.547 1151.84 532.249C1150.79 537.951 1149.28 540.162 1149.28 540.162C1149.28 540.162 1128.93 542.256 1123.46 544.816C1118.11 547.376 1121.37 550.518 1112.76 555.172C1104.16 559.827 1075.9 581.354 1062.99 589.5C1050.08 597.762 1032.17 620.336 1032.17 620.336H1032.4Z" fill="black"/>
<path d="M1278.14 663.275L1254.65 649.311L1278.14 663.275Z" fill="black"/>
<path d="M2651.39 1206.81C2651.39 1206.81 2665.81 1198.9 2667.09 1197.97C2668.37 1197.04 2669.53 1191.22 2668.13 1188.89" fill="black"/>
<path d="M2791.76 1116.51C2800.83 1121.05 2839.21 1149.91 2848.98 1156.66C2858.75 1163.29 2849.44 1160.73 2858.51 1173.88C2867.58 1187.03 2877.12 1197.04 2893.64 1201.57C2910.15 1206.11 2911.78 1208.56 2911.78 1208.56C2911.78 1208.56 2963.07 1243.7 2975.51 1253.24C2987.95 1262.78 2994.35 1268.02 2994.35 1268.02L2960.97 1281.63C2960.97 1281.63 2960.27 1296.41 2967.37 1303.86C2974.58 1311.31 2973.07 1314.1 2978.88 1326.55C2984.58 1339 2991.09 1345.17 2999.93 1349.24C3008.77 1353.31 3019.01 1353.08 3026.45 1360.99C3033.89 1368.91 3053.43 1365.07 3053.43 1365.07L3071.8 1381.82C3071.8 1381.82 3045.99 1380.43 3038.66 1385.2C3031.33 1389.97 3030.29 1397.42 3035.52 1404.05C3040.75 1410.68 3039.82 1422.43 3038.19 1424.53C3036.57 1426.62 3035.05 1428.37 3035.05 1428.37C3035.05 1428.37 3018.31 1403.35 3010.52 1394.97C3002.61 1386.59 3005.28 1392.53 2994.58 1379.26C2983.88 1365.88 2961.9 1341.56 2952.37 1337.02C2942.83 1332.48 2897.94 1261.04 2893.87 1255.57C2889.8 1250.1 2870.49 1237.65 2856.42 1229.04C2842.35 1220.43 2835.14 1221.82 2826.07 1205.18C2817 1188.43 2811.06 1177.25 2806.76 1173.88C2802.46 1170.51 2798.85 1167.71 2798.85 1167.71C2798.85 1167.71 2817.93 1156.31 2812.69 1149.09C2807.46 1141.88 2810.25 1142.69 2800.25 1134.32C2790.25 1125.94 2787.11 1123.38 2787.11 1123.38L2791.87 1116.98L2791.76 1116.51Z" fill="black"/>
<path d="M1615.87 409.718C1612.03 426.474 1613.19 436.481 1612.73 448.118C1612.26 459.87 1609.36 478.256 1609.36 478.256C1609.36 478.256 1639.24 469.645 1651.57 460.569C1664.02 451.492 1661.11 441.252 1654.25 433.805C1647.27 426.358 1636.34 419.958 1636.34 419.958C1636.34 419.958 1637.27 420.19 1632.5 422.052C1627.73 423.914 1624.36 420.19 1624.13 413.907C1623.89 407.739 1619.59 405.994 1619.59 405.994L1615.75 409.601L1615.87 409.718Z" fill="black"/>
<path d="M1565.05 379.23C1551.67 385.165 1541.44 391.914 1541.21 402.852C1540.97 413.79 1545.51 416.001 1553.65 424.379C1561.79 432.758 1573.65 438.227 1585.17 438.925C1596.68 439.623 1596.91 429.15 1594.93 422.169C1593.07 415.187 1593.31 404.248 1593.31 403.085C1593.31 401.921 1587.14 386.561 1583.54 384.467C1579.93 382.372 1578.07 388.772 1575.63 391.448C1573.19 394.125 1565.16 379.23 1565.16 379.23H1565.05Z" fill="black"/>
<path d="M1530.74 352.234C1525.97 360.147 1526.9 371.317 1534.58 375.856C1542.25 380.394 1560.39 368.641 1562.02 367.71C1563.65 366.779 1564.7 351.768 1564.7 347.23C1564.7 342.692 1546.32 319.535 1546.32 319.535C1546.32 319.535 1533.88 325.47 1528.88 331.986C1523.88 338.386 1525.27 349.208 1530.74 352.234Z" fill="black"/>
<path d="M1509.92 386.561C1507.48 384.699 1512.83 377.717 1517.13 377.717C1525.51 377.717 1523.06 379.579 1531.9 381.557" fill="black"/>
<path d="M1812.76 613.936C1804.04 610.794 1796.6 618.824 1793.22 621.849C1789.85 624.875 1793.46 633.718 1796.83 635.115C1800.2 636.511 1806.36 637.209 1806.36 637.209C1806.36 637.209 1817.3 615.565 1812.76 613.936Z" fill="black"/>
<path d="M2171.77 479.652C2171.77 479.652 2140.49 488.729 2137.93 491.056C2135.26 493.5 2122.7 481.514 2134.56 470.809C2146.54 460.103 2164.68 475.114 2166.77 476.51C2168.87 477.907 2171.77 479.652 2171.77 479.652Z" fill="black"/>
<path d="M2064.55 411.928C2051.41 406.925 2043.73 405.761 2036.64 404.481C2029.54 403.201 2025.12 417.514 2026.17 419.027C2027.21 420.539 2025.47 425.659 2035.47 440.321C2045.47 454.867 2058.38 463.012 2066.06 464.874C2073.73 466.736 2081.53 460.336 2081.53 460.336C2081.53 460.336 2073.85 448.932 2078.85 448.118C2083.85 447.303 2090.02 441.136 2092.92 436.947C2095.83 432.641 2103.39 426.009 2108.39 424.961C2113.39 424.03 2112.93 415.652 2112.93 415.652C2112.93 415.652 2104.32 418.096 2098.85 413.208C2093.39 408.321 2092.23 404.132 2092.23 402.736C2092.23 401.339 2109.44 411.347 2112.23 408.205C2115.14 405.063 2113.62 397.965 2112 395.288C2110.37 392.612 2104.2 383.885 2104.09 381.907C2103.97 379.928 2095.48 384.583 2082.57 384.816C2069.66 385.048 2061.29 384.816 2061.29 384.816L2065.13 406.11L2064.43 411.812L2064.55 411.928Z" fill="black"/>
<path d="M2172.7 350.023C2172.7 350.023 2170.61 373.877 2168.63 378.648C2166.77 383.419 2155.03 386.328 2145.49 388.423" fill="black"/>
</svg>
